<svg xmlns="http://www.w3.org/2000/svg" viewBox="0 0 520 325" width="520" height="325" font-family="Inter, Segoe UI, Arial, sans-serif"><line x1="50" y1="150" x2="470" y2="150" stroke="#94a3b8" stroke-width="6" stroke-linecap="round"/><line x1="100" y1="150" x2="100" y2="70" stroke="#94a3b8" stroke-width="3" stroke-linecap="round" /><circle cx="100" cy="150" r="5" fill="#94a3b8"/><g><circle cx="100" cy="70" r="24" fill="#2563eb"/><text x="100" y="75" text-anchor="middle" font-size="14" font-weight="600" fill="#fff">PC1</text></g><line x1="180" y1="150" x2="180" y2="230" stroke="#94a3b8" stroke-width="3" stroke-linecap="round" /><circle cx="180" cy="150" r="5" fill="#94a3b8"/><g><circle cx="180" cy="230" r="24" fill="#2563eb"/><text x="180" y="235" text-anchor="middle" font-size="14" font-weight="600" fill="#fff">PC2</text></g><line x1="260" y1="150" x2="260" y2="70" stroke="#94a3b8" stroke-width="3" stroke-linecap="round" /><circle cx="260" cy="150" r="5" fill="#94a3b8"/><g><circle cx="260" cy="70" r="24" fill="#2563eb"/><text x="260" y="75" text-anchor="middle" font-size="14" font-weight="600" fill="#fff">PC3</text></g><line x1="340" y1="150" x2="340" y2="230" stroke="#94a3b8" stroke-width="3" stroke-linecap="round" /><circle cx="340" cy="150" r="5" fill="#94a3b8"/><g><circle cx="340" cy="230" r="24" fill="#2563eb"/><text x="340" y="235" text-anchor="middle" font-size="14" font-weight="600" fill="#fff">PC4</text></g><line x1="420" y1="150" x2="420" y2="70" stroke="#94a3b8" stroke-width="3" stroke-linecap="round" /><circle cx="420" cy="150" r="5" fill="#94a3b8"/><g><circle cx="420" cy="70" r="24" fill="#2563eb"/><text x="420" y="75" text-anchor="middle" font-size="14" font-weight="600" fill="#fff">PC5</text></g><rect x="41" y="134" width="18" height="32" rx="4" fill="#f59e0b"/><rect x="461" y="134" width="18" height="32" rx="4" fill="#f59e0b"/><text x="50" y="186" text-anchor="middle" font-size="13" fill="#64748b">terminator</text><text x="470" y="186" text-anchor="middle" font-size="13" fill="#64748b">terminator</text><text x="260" y="136" text-anchor="middle" font-size="13" fill="#64748b">backbone cable</text><text x="14" y="315" text-anchor="start" font-size="13" fill="#64748b">One shared cable; nodes attach with drop lines and taps</text></svg>
